<svg width="77" height="29" viewBox="0 0 77 29" fill="none" xmlns="http://www.w3.org/2000/svg">
<path fill-rule="evenodd" clip-rule="evenodd" d="M12.8454 8.3837C11.485 7.00153 9.59259 6.14453 7.5 6.14453C3.35786 6.14453 0 9.5024 0 13.6445C0 17.7867 3.35786 21.1445 7.5 21.1445C9.50619 21.1445 11.3284 20.3568 12.6742 19.0738C11.6202 17.5999 11 15.7947 11 13.8445C11 11.791 11.6877 9.89817 12.8454 8.3837Z" fill="black"/>
<path d="M18.4365 6.57422H21.5798V21.1456H18.4365V6.57422Z" fill="black"/>
<path d="M27.2939 12.2891L27.2939 15.4323L12.7225 15.4323L12.7225 12.2891L27.2939 12.2891Z" fill="black"/>
<path d="M24.0488 7.59766L26.2715 9.82028L15.9679 20.1238L13.7453 17.9012L24.0488 7.59766Z" fill="black"/>
<path d="M26.2715 17.9023L24.0489 20.125L13.7453 9.82141L15.9679 7.59879L26.2715 17.9023Z" fill="black"/>
<g clip-path="url(#clip0_20765_19976)">
<path d="M33.3506 21H30.4363V6.42857H35.4739L37.3057 13.3396C37.7845 15.1298 38.1592 16.7118 38.3882 17.9608H38.4298C38.6796 16.7118 39.1376 14.7759 39.5122 13.3812L41.3441 6.42857H46.3192V21H43.4049V12.6318C43.4049 12.0698 43.4465 9.96735 43.4882 8.65592H43.4257C42.9886 10.3837 42.4682 12.3196 42.26 13.0482L40.0951 21H36.6396L34.4747 12.9649C34.2873 12.2571 33.7253 10.1131 33.3298 8.65592H33.2673C33.2882 9.96735 33.3506 12.1531 33.3506 12.7151V21ZM52.7383 13.5269C54.3203 14.089 55.2987 15.1922 55.2987 16.9408C55.2987 20.4796 52.426 21 49.1578 21H43.3709V6.42857H48.8664C51.6974 6.42857 54.7366 6.94898 54.7366 10.3629C54.7366 11.9033 53.9664 12.9441 52.7383 13.5269ZM48.7207 8.8849H46.5142V12.3404H48.6999C50.4068 12.3404 51.6558 12.2988 51.6558 10.6127C51.6558 8.98898 50.4068 8.8849 48.7207 8.8849ZM46.5142 18.5437H49.0121C50.9897 18.5437 52.2178 18.4396 52.2178 16.7118C52.2178 14.8592 50.6774 14.7967 49.1162 14.7967H46.5142V18.5437ZM59.8752 21.2498C56.5237 21.2498 53.6927 19.6886 53.5886 16.1706L56.7943 15.8167C56.7943 17.8567 58.085 18.8351 59.9584 18.8351C61.5821 18.8351 62.8311 18.2939 62.8311 16.8367C62.8311 15.4212 61.3531 15.3588 59.1466 14.88C56.2323 14.2555 53.9841 13.2355 53.9841 10.4461C53.9841 7.46939 56.8568 6.17878 59.667 6.17878C62.8311 6.17878 65.225 7.42776 65.5788 10.8416L62.3939 11.3412C62.3107 9.40531 61.3323 8.57265 59.6462 8.57265C58.1474 8.57265 57.169 9.15551 57.169 10.3004C57.169 11.3829 58.3348 11.7992 60.4164 12.1739C63.5805 12.7359 66.0368 13.6102 66.0368 16.7535C66.0368 20.2506 62.9143 21.2498 59.8752 21.2498ZM71.3996 21H68.2563V9.07224H63.6143V6.42857H76.0416V9.07224H71.3996V21Z" fill="black"/>
</g>
<defs>
<clipPath id="clip0_20765_19976">
<rect width="48" height="29" fill="white" transform="translate(29)"/>
</clipPath>
</defs>
</svg>
